<svg width="328" height="483" viewBox="0 0 328 483" fill="none" xmlns="http://www.w3.org/2000/svg">
<circle cx="132" cy="402" r="81" fill="#9DDEF4"/>
<rect x="214" y="386.865" width="30.5071" height="48" rx="2" transform="rotate(-15 214 386.865)" fill="#B6704F"/>
<rect x="250.443" y="386.865" width="30.5071" height="48" rx="2" transform="rotate(-15 250.443 386.865)" fill="#B6704F"/>
<path d="M214.001 284.76L208.263 285L154 289.5L142 368.409L197.385 330.659L240.128 374.043C241.209 375.14 241.951 376.526 242.263 378.034L243.218 382.639C243.405 383.539 243.745 384.401 244.225 385.186L248.694 392.499C248.897 392.831 249.05 393.191 249.149 393.567L250.658 399.301C251.147 401.158 252.885 402.405 254.8 402.274L283.898 400.281C286.145 400.127 287.822 398.149 287.606 395.907L287.153 391.204C287.108 390.738 287.146 390.268 287.263 389.815L290.075 378.988C290.977 375.514 290.276 371.817 288.165 368.914L284.837 364.339C281.302 359.478 278.573 354.08 276.753 348.351L268.723 323.064C261.212 299.413 238.794 283.721 214.001 284.76Z" fill="#389810"/>
<path d="M255 438L257.151 417.748C257.484 414.617 261.393 413.392 263.453 415.774C263.767 416.137 264.342 416.097 264.602 415.693L269.79 407.66C271.263 405.378 273.794 404 276.51 404H282.801C286.357 404 289.486 406.347 290.481 409.761L294.223 422.598C294.961 425.129 296.511 427.346 298.635 428.908L307.739 435.602C309.789 437.11 311 439.503 311 442.047V455C311 457.209 309.209 459 307 459H259C256.791 459 255 457.209 255 455V438Z" fill="#F23116"/>
<path d="M255 449H272C273.105 449 274 449.895 274 451V453C274 454.105 273.105 455 272 455H255V449Z" fill="white"/>
<path d="M294 425L276.5 429H296.5L283 433" stroke="#FECE00" stroke-width="2" stroke-linejoin="bevel"/>
<path fill-rule="evenodd" clip-rule="evenodd" d="M257.938 415.841L262.94 424.144C263.875 425.694 265.148 427.014 266.665 428.002L278.369 435.633C280.634 437.11 282 439.63 282 442.334V455C282 457.209 280.209 459 278 459H258.99C256.786 458.995 255 457.206 255 455V438L257.151 417.748C257.231 416.994 257.518 416.351 257.938 415.841Z" fill="#C61800"/>
<path d="M218 438L220.151 417.748C220.484 414.617 224.393 413.392 226.453 415.774C226.767 416.137 227.342 416.097 227.602 415.693L232.79 407.66C234.263 405.378 236.794 404 239.51 404H245.801C249.357 404 252.486 406.347 253.481 409.761L257.223 422.598C257.961 425.129 259.511 427.346 261.635 428.908L270.739 435.602C272.789 437.11 274 439.503 274 442.047V455C274 457.209 272.209 459 270 459H222C219.791 459 218 457.209 218 455V438Z" fill="#F23116"/>
<path d="M218 449H235C236.105 449 237 449.895 237 451V453C237 454.105 236.105 455 235 455H218V449Z" fill="white"/>
<path d="M257 425L239.5 429H259.5L246 433" stroke="#FECE00" stroke-width="2" stroke-linejoin="bevel"/>
<path d="M189.712 346.898L186.601 381.35C186.253 385.201 188.709 388.749 192.436 389.78L207.984 394.081C208.958 394.35 209.795 394.979 210.324 395.84L216.069 405.174C216.932 406.577 218.567 407.307 220.187 407.014L247.212 402.126C249.116 401.781 250.5 400.124 250.5 398.19V390.246C250.5 389.773 250.584 389.304 250.748 388.86L258.174 368.765C258.705 367.33 258.667 365.747 258.068 364.339L242 326.531L226.062 306.292C223.04 302.456 219.419 299.133 215.338 296.451C207.941 291.59 199.284 289 190.433 289H98C95.7909 289 94 290.791 94 293V312.178C94 326.538 105.641 338.178 120 338.178H181.745C186.447 338.178 190.135 342.214 189.712 346.898Z" fill="#288202"/>
<path d="M83.6715 324.5V246C83.6715 241.582 80.0898 238 75.6715 238H53M173.195 351.213L183.15 356.62C189.657 360.153 194.566 366.042 196.871 373.079L225.5 460.5M168.173 364.639V364.639C176.552 366.93 182.76 373.992 183.96 382.595L191.516 436.804M169.428 428.413L175.865 431.256C180.3 433.215 183.912 436.661 186.075 441V441" stroke="white" stroke-width="8"/>
<path d="M29.8 245.074C28.106 246.747 26.412 247.33 24.718 246.823C22.7174 246.224 22 243.899 22 241.81C22 237.497 25.4968 234 29.8104 234H61V242.149C61 244.021 60.3518 246.049 58.6025 246.714C56.8017 247.399 55.0008 246.853 53.2 245.074C50.6 242.506 48 242.506 45.4 245.074C42.8 247.642 40.2 247.642 37.6 245.074C35 242.506 32.4 242.506 29.8 245.074Z" fill="#9DDEF4"/>
<path d="M218 467C218 468.105 218.895 469 220 469H316C317.105 469 318 468.105 318 467V461C318 459.895 317.105 459 316 459H220C218.895 459 218 459.895 218 461V467Z" fill="#9DDEF4"/>
<ellipse cx="194" cy="458" rx="18" ry="22" fill="white" stroke="#6CBBD7" stroke-width="6"/>
<ellipse cx="194" cy="458" rx="4.90909" ry="6" stroke="#6CBBD7" stroke-width="4"/>
<path d="M169 338H191C197.627 338 203 343.373 203 350V356C203 364.837 195.837 372 187 372H169V338Z" fill="#9DDEF4"/>
<ellipse cx="99" cy="386" rx="79" ry="92" fill="white" stroke="#6CBBD7" stroke-width="10"/>
<path d="M99 293.217V384.946M99 384.946V476.674M99 384.946H178M99 384.946L20 384.946M99 384.946L154.861 320.084M99 384.946L43.1386 449.807M99 384.946L154.861 449.807M99 384.946L43.1386 320.084" stroke="#6CBBD7" stroke-width="6"/>
<ellipse cx="99" cy="384.946" rx="9" ry="10.5435" fill="white" stroke="#6CBBD7" stroke-width="6"/>
<path d="M279.405 215.742L283.5 217.651L292.441 231.012C295.092 234.974 294.578 240.256 291.213 243.632L270.327 264.589C254.754 280.216 233.599 289 211.537 289H171V196L217.466 212.057C229.974 216.38 243.334 217.648 256.432 215.758L268.098 214.074C271.949 213.518 275.878 214.098 279.405 215.742Z" fill="#ECA8FF"/>
<path fill-rule="evenodd" clip-rule="evenodd" d="M171 199.661C184.361 206.416 195.139 217.935 200.811 232.494L204.961 243.147C209.865 255.735 218.569 266.483 229.864 273.895L239.434 280.176C240.674 280.989 241.575 282.013 242.169 283.141C232.512 286.975 222.129 289 211.537 289H171V199.661Z" fill="#E379F8"/>
<path d="M100.972 258H181.692C181.692 275 185 289 185 289H99L99.1159 288.592C101.942 278.649 102.575 268.211 100.972 258Z" fill="#B6704F"/>
<path d="M121.102 186H150.064C169.419 186 185.229 200.094 191.019 218.563C196.435 235.837 201.009 239.2 207.267 270.371C208.228 275.161 204.612 279.635 199.728 279.786L67.756 283.853C65.2732 283.93 63.326 281.767 63.7106 279.313C65.6158 267.158 71.1604 234.398 78 217.5C85.1262 199.894 102.108 186 121.102 186Z" fill="#ECA8FF"/>
<path d="M103 207L66 235.16L97.5 283.5L113.75 282.75C113.75 282.75 109.5 267 109 254C108.5 241 103 207 103 207Z" fill="#E379F8"/>
<path d="M314.813 194.249L303.23 197.817C303.013 197.884 302.815 197.983 302.633 198.118C301.152 199.211 293.853 204.582 287.411 209C288.274 206 289.3 199.2 286.5 196C283.875 193 281.529 193 279.764 193C278 193 279.5 197.5 280.5 199C281.27 200.155 278.937 204.673 278.386 209.576C278.065 212.432 277.765 215.385 276.417 217.923C274.305 221.903 274.49 226.711 276.904 230.516L277.283 231.114C280.31 235.887 286.088 238.141 291.548 236.678L291.691 236.726C296.691 238.418 302.21 236.679 305.338 232.428C305.62 232.044 306.039 231.782 306.508 231.698L311.135 230.862C311.506 230.795 311.888 230.834 312.238 230.975L318.615 233.544C319.31 233.824 320.103 233.692 320.669 233.203L321.57 232.426C322.552 231.578 322.48 230.034 321.423 229.282L313.988 223.993C313.609 223.723 313.147 223.594 312.682 223.628L309.533 223.86C308.915 223.906 308.782 223.009 309.387 222.874L314.078 221.824C314.331 221.767 314.593 221.76 314.849 221.804L325.037 223.531C326.292 223.744 327.424 222.745 327.37 221.473L327.34 220.78C327.303 219.92 326.719 219.18 325.892 218.943L313.721 215.461C313.419 215.375 313.102 215.361 312.794 215.42L306.571 216.614C306.026 216.719 305.741 215.99 306.213 215.698L313.363 211.272C313.57 211.144 313.798 211.055 314.037 211.009L324.517 208.988C325.917 208.718 326.593 207.112 325.808 205.922L325.489 205.439C325.091 204.836 324.398 204.494 323.677 204.546L312.017 205.385C311.768 205.403 311.524 205.467 311.299 205.575L301.746 210.129C301.244 210.369 300.785 209.731 301.172 209.33L307.102 203.197C307.268 203.025 307.464 202.885 307.679 202.782L316.836 198.416C318.175 197.777 318.377 195.954 317.21 195.038L316.637 194.587C316.121 194.183 315.44 194.056 314.813 194.249Z" fill="#B6704F"/>
<path d="M102.371 369.767L98.9 366.606C95.2817 363.31 93.527 358.462 93.7748 353.566L73.5493 362.596C74.3239 370.776 75.9535 378.896 78.387 386.745C78.6218 387.502 78.65 388.312 78.4665 389.082C78.3084 389.746 78.3061 390.437 78.4598 391.102L79.3022 394.746C79.4805 395.518 80.0092 396.16 80.7293 396.481C81.4495 396.802 81.9782 397.445 82.1565 398.216L82.2016 398.412C82.4211 399.361 83.0978 400.139 84.0048 400.484L84.6589 400.733C85.4841 401.047 86.191 401.614 86.6795 402.354L87.0312 402.886C87.8438 404.116 89.0879 404.992 90.514 405.34C91.2037 405.508 91.8573 405.801 92.4425 406.206L97.1939 409.49C97.8508 409.944 98.7107 409.968 99.3893 409.551C100.283 409.002 100.608 407.856 100.137 406.912L94.9512 396.513C94.5074 395.623 94.2889 394.637 94.3152 393.643L94.5337 385.401C94.5679 384.111 95.4641 383.009 96.7144 382.72C98.2318 382.369 99.7479 383.322 100.101 384.849L100.252 385.503C100.329 385.836 100.357 386.178 100.336 386.519L100.196 388.749C100.096 390.346 100.631 391.919 101.683 393.123L102.538 394.1C103.576 395.287 105.505 394.867 105.954 393.356L107.837 387.03C108.195 385.829 108.171 384.545 107.768 383.356L104.03 372.305C103.7 371.331 103.129 370.458 102.371 369.767Z" fill="#B6704F"/>
<path d="M102.946 389.62C103.078 388.298 103.899 387.298 104.78 387.386C105.662 387.474 106.269 388.617 106.137 389.939C106.005 391.26 105.184 392.261 104.303 392.173C103.421 392.085 102.814 390.942 102.946 389.62Z" fill="#D58E54"/>
<path d="M96.2477 407.666C95.3414 406.694 95.0219 405.519 95.5341 405.042C96.0463 404.564 97.1962 404.964 98.1024 405.935C99.0087 406.906 99.3282 408.081 98.816 408.559C98.3039 409.037 97.154 408.637 96.2477 407.666Z" fill="#D58E54"/>
<path d="M95.446 361.721L80.054 370.397C75.111 373.183 68.843 371.303 66.2495 366.256L41.641 318.369C36.7834 308.916 36.225 297.831 40.1083 287.938L65.452 223.372C72.0702 206.512 86.4349 193.893 104.008 189.504L118.033 186L99.8371 286.141C98.9475 291.037 98.4999 296.003 98.4999 300.979L98.4999 356.494C98.4999 358.66 97.3327 360.658 95.446 361.721Z" fill="#ECA8FF"/>
<path d="M124.5 233.336L121 252L129 249.544M141 228.916L143 246.106L148 226.951M157 240.703L150.5 243.159L152 233.827M152 233.827L153 225.969L158 224.495M152 233.827L157 232.354M160.5 232.599L161.5 223.513C163.833 222.367 168 219.976 168 225.477C168 227.442 166.5 229.407 164.5 230.88M160.5 232.599L160 240.703M160.5 232.599C161.3 232.722 162.5 232.354 164.5 230.88M164.5 230.88L167 238.739M136.863 239.721C136.386 244.402 134.627 248.562 133.046 248.562C131.464 248.562 130.659 244.922 131.137 239.721C131.614 234.521 133.373 230.88 134.954 230.88C136.536 230.88 137.341 235.041 136.863 239.721Z" stroke="white" stroke-width="2"/>
<path d="M120 258L170.5 242" stroke="#F23116" stroke-width="2"/>
<path d="M120 231L170.5 215" stroke="#F23116" stroke-width="2"/>
<circle cx="162" cy="157" r="2" fill="#F4B510"/>
<path d="M164 169.667C164 170.955 163.105 172 162 172C160.895 172 160 170.955 160 169.667C160 168.378 160.895 160 162 160C163.105 160 164 168.378 164 169.667Z" fill="#F4B510"/>
<path fill-rule="evenodd" clip-rule="evenodd" d="M133.5 116C121.074 116 111 126.074 111 138.5V139.5C111 140.224 111.034 140.939 111.101 141.646C111.307 143.821 109.185 146 107 146H106C96.6112 146 89 153.611 89 163C89 172.389 96.6112 180 106 180H107C116.389 180 124 172.389 124 163C124 161.654 125.438 160.556 126.721 160.961C128.861 161.636 131.138 162 133.5 162H139.5C151.926 162 162 151.926 162 139.5V138.5C162 126.074 151.926 116 139.5 116H133.5Z" fill="#1A2027"/>
<path fill-rule="evenodd" clip-rule="evenodd" d="M124.57 138H133C137.239 138 141.062 135.451 142.692 131.538L143.333 130L143.607 130.82C145.036 135.108 149.048 138 153.568 138H159.653C160.255 139.429 160.673 140.996 160.87 142.703C161.045 144.217 161.232 145.742 161.809 147.153C162.426 148.664 163 150.068 163 152C163 157.008 161.748 161.671 159.532 165.582C158.845 166.795 158.206 168.058 157.565 169.326C156.396 171.64 155.219 173.968 153.727 176.029C151.547 179.041 148.002 181 144 181C143.529 181 143.064 180.973 142.606 180.92L145.294 190.925C146.659 196.007 142.83 201 137.568 201H135C126.163 201 119 193.837 119 185V162.108C118.918 161.912 118.839 161.715 118.762 161.516C117.984 159.506 116.155 158 114 158C111.791 158 110 156.209 110 154V151.062C110 146.96 115.438 145.516 117.473 149.078C118.087 150.152 119.493 150.277 120.041 149.168C120.655 147.924 121.232 146.351 121.868 144.621C122.63 142.544 123.476 140.239 124.57 138Z" fill="#B6704F"/>
<circle cx="115" cy="157" r="2" fill="#F4B510"/>
<path d="M117 169.667C117 170.955 116.105 172 115 172C113.895 172 113 170.955 113 169.667C113 168.378 113.895 160 115 160C116.105 160 117 168.378 117 169.667Z" fill="#F4B510"/>
<path d="M145 146L145.699 150.892C145.898 152.286 146.35 153.631 147.034 154.861L148.572 157.629C149.661 159.59 148.243 162 146 162V162" stroke="#1A2027" stroke-width="2"/>
<path d="M152 158C152 159.105 151.105 160 150 160L149 160" stroke="#1A2027" stroke-width="2"/>
<path d="M143 160C141.895 160 141 159.105 141 158" stroke="#1A2027" stroke-width="2"/>
<path d="M145.763 165.064L147.737 166.072C147.9 166.155 148.098 166.122 148.237 166.004C148.555 165.733 149.056 165.364 149.462 165.122C149.594 165.043 149.76 165.053 149.88 165.149C151.645 166.564 151.129 169.029 149.679 170.365C150.514 171.923 149.679 174 146.509 174C143.339 174 138.667 170.365 138 168.462C139.564 166.569 143.553 165.402 145.501 165.026C145.59 165.008 145.681 165.022 145.763 165.064Z" fill="#C61800"/>
<path d="M131 143C133.209 145.667 136.791 145.667 139 143" stroke="#1A2027" stroke-width="2"/>
<path d="M139 148C136.791 145.333 133.209 145.333 131 148C134.2 151.6 137.667 149.5 139 148Z" fill="white"/>
<path d="M159 148C156.791 145.333 153.209 145.333 151 148C154.2 151.6 157.667 149.5 159 148Z" fill="white"/>
<path d="M159 143C156.791 140.333 153.209 140.333 151 143" stroke="#1A2027" stroke-width="2"/>
<path d="M158 151C156.343 149.667 153.657 149.667 152 151" stroke="#1A2027" stroke-width="2"/>
<path d="M138 151C136.343 149.667 133.657 149.667 132 151" stroke="#1A2027" stroke-width="2"/>
<circle cx="135" cy="148" r="2" fill="#1A2027"/>
<circle cx="155" cy="148" r="2" fill="#1A2027"/>
</svg>
